<svg xmlns="http://www.w3.org/2000/svg" xmlns:xlink="http://www.w3.org/1999/xlink" width="500" zoomAndPan="magnify" viewBox="0 0 375 374.999991" height="500" preserveAspectRatio="xMidYMid meet" version="1.0"><defs><clipPath id="fa366ce59e"><path d="M 0 58 L 322 58 L 322 375 L 0 375 Z M 0 58 " clip-rule="nonzero"/></clipPath><clipPath id="b0871a4d12"><path d="M -23.011719 99.371094 L 309.925781 0.703125 L 403.691406 317.101562 L 70.753906 415.769531 Z M -23.011719 99.371094 " clip-rule="nonzero"/></clipPath><clipPath id="5688019a34"><path d="M -23.011719 99.371094 L 309.925781 0.703125 L 403.691406 317.101562 L 70.753906 415.769531 Z M -23.011719 99.371094 " clip-rule="nonzero"/></clipPath><clipPath id="d8e955d3e1"><path d="M 182 24 L 351 24 L 351 189 L 182 189 Z M 182 24 " clip-rule="nonzero"/></clipPath><clipPath id="fed264770c"><path d="M -23.011719 99.371094 L 309.925781 0.703125 L 403.691406 317.101562 L 70.753906 415.769531 Z M -23.011719 99.371094 " clip-rule="nonzero"/></clipPath><clipPath id="7619238617"><path d="M -23.011719 99.371094 L 309.925781 0.703125 L 403.691406 317.101562 L 70.753906 415.769531 Z M -23.011719 99.371094 " clip-rule="nonzero"/></clipPath></defs><rect x="-37.5" width="450" fill="#ffffff" y="-37.499999" height="449.999989" fill-opacity="1"/><rect x="-37.5" width="450" fill="#f2efe7" y="-37.499999" height="449.999989" fill-opacity="1"/><g clip-path="url(#fa366ce59e)"><g clip-path="url(#b0871a4d12)"><g clip-path="url(#5688019a34)"><path fill="#008080" d="M 130.082031 293.976562 L 241.378906 176.664062 L 231.328125 142.757812 L 197.242188 134.582031 L 85.949219 251.890625 L 69.019531 194.753906 L 101.496094 160.523438 L 134.15625 126.09375 L 182.527344 75.109375 L 131.21875 62.800781 L 114.1875 58.710938 L 102.140625 71.417969 L 57.421875 118.546875 L 12.710938 165.679688 L 0.472656 178.582031 L 47.332031 336.703125 L 64.625 340.855469 L 127.796875 356.011719 L 190.976562 371.167969 L 207.996094 375.253906 L 220.050781 362.550781 L 264.765625 315.421875 L 309.480469 268.289062 L 321.71875 255.386719 L 301.75 188.007812 L 301.542969 188.230469 L 253.167969 239.210938 L 220.699219 273.445312 L 188.03125 307.875 L 141.882812 296.804688 Z M 130.082031 293.976562 " fill-opacity="1" fill-rule="evenodd"/></g></g></g><g clip-path="url(#d8e955d3e1)"><g clip-path="url(#fed264770c)"><g clip-path="url(#7619238617)"><path fill="#9acbd0" d="M 274.5625 97.191406 L 301.542969 188.230469 L 301.75 188.007812 L 350.121094 137.023438 L 323.230469 46.28125 L 305.941406 42.132812 L 242.761719 26.96875 L 230.898438 24.125 L 182.527344 75.109375 L 228.683594 86.179688 L 240.476562 89.011719 Z M 274.5625 97.191406 " fill-opacity="1" fill-rule="evenodd"/></g></g></g></svg>